<?xml version="1.0" standalone="no"?>
<!DOCTYPE svg PUBLIC "-//W3C//DTD SVG 20010904//EN"
 "http://www.w3.org/TR/2001/REC-SVG-20010904/DTD/svg10.dtd">
<svg version="1.0" xmlns="http://www.w3.org/2000/svg"
 width="179.000000pt" height="179.000000pt" viewBox="0 0 179.000000 179.000000"
 preserveAspectRatio="xMidYMid meet">
<metadata>
Created by potrace 1.14, written by Peter Selinger 2001-2017
</metadata>
<g transform="translate(0.000000,179.000000) scale(0.100000,-0.100000)"
fill="#000000" stroke="none">
<path d="M755 1779 c-121 -25 -164 -38 -243 -75 -107 -51 -157 -88 -253 -183
-128 -129 -210 -282 -242 -456 -21 -109 -15 -285 12 -390 113 -428 518 -708
956 -661 369 39 677 306 770 666 1 3 5 25 9 50 5 25 10 54 12 65 10 44 4 185
-11 265 -62 349 -333 630 -688 710 -63 15 -267 20 -322 9z"/>
</g>
</svg>
